<?xml version="1.0" encoding="UTF-8"?>
<svg id="Layer_1" data-name="Layer 1" xmlns="http://www.w3.org/2000/svg" viewBox="0 0 596.65 722.97">
  <defs>
    <style>
      .cls-1 {
        fill: #fdc4c4;
      }

      .cls-2 {
        fill: none;
        stroke: #fdc4c4;
        stroke-miterlimit: 10;
        stroke-width: 40px;
      }
    </style>
  </defs>
  <path class="cls-1" d="m284.09,448.18l-83.8-86.42,84.36-86.76,83.8,86.42-84.36,86.76Zm-.06,86.13l168.06-172.85-167.38-172.59-168.06,172.85,167.38,172.59Z"/>
  <path class="cls-1" d="m556.64,371.95l30,.02c5.52,0,10-4.47,10.01-9.99v-2c0-5.52-4.47-10-9.99-10.01l-30-.02c-5.52,0-10,4.47-10.01,9.99v2c0,5.52,4.47,10,9.99,10.01Z"/>
  <path class="cls-1" d="m49.92,384.05l-21.64-21.66,21.79-21.77,21.65,21.65-21.8,21.78Zm0,28.28l50.09-50.04-49.9-49.96L0,362.37l49.91,49.96Z"/>
  <path class="cls-2" d="m280.81,680.8s-113.36-36.38,299.35-326.48M281.06,39.81s-113.4,36.22,298.91,326.88M269.86,47.8c10.72-21.61,35.13-32.37,57.02-25.96,25.49,7.47,38.31,35.5,32.96,57.02-2.89,11.64-10.56,19.26-15.02,22.99m7.08,526.07c13.36,20.09,10.47,46.61-6.02,62.36-19.21,18.35-49.89,15.43-65.86.04-8.63-8.33-11.4-18.78-12.4-24.5"/>
</svg>